<svg xmlns="http://www.w3.org/2000/svg"  viewBox="0 0 100 100" width="100px" height="100px"><path d="M 40.607422 7.3652344 C 38.842653 7.5461351 37.816406 8.8945312 37.816406 8.8945312 A 1.0001 1.0001 0 0 0 37.792969 8.9277344 C 37.293367 9.6559451 36.735287 10.848699 36.011719 12.423828 C 35.28815 13.998958 34.440525 15.910295 33.537109 17.867188 C 31.730278 21.780973 29.626324 25.922209 28.109375 27.640625 C 26.52456 29.436607 21.964054 32.073883 17.902344 34.076172 C 13.840633 36.07846 10.234375 37.560547 10.234375 37.560547 A 1.0001 1.0001 0 0 0 10.070312 37.646484 C 8.3496139 38.764422 7.6426966 40.658326 8.0058594 42.353516 C 8.3690221 44.048705 9.7414323 45.536483 11.763672 46.097656 C 14.007884 46.720232 17.532336 48.172755 20.845703 49.982422 C 24.15907 51.792088 27.286753 54.005738 28.777344 55.929688 C 30.232241 57.80782 32.403704 61.908346 34.201172 65.597656 C 35.99864 69.286966 37.440142 72.547219 37.712891 73.134766 C 38.916722 75.723775 43.530534 76.054802 45.466797 71.859375 C 46.322949 70.004295 47.789161 66.695865 49.601562 63.337891 C 51.413966 59.979916 53.59693 56.57776 55.703125 54.638672 C 59.90343 50.771232 68.117346 47.58808 71.826172 45.910156 C 74.393094 44.747963 75.502076 42.997937 75.419922 41.435547 C 75.355722 40.22542 74.657456 38.267705 71.996094 37.015625 C 69.565813 35.871245 61.840757 32.352753 56.015625 28.330078 C 53.374429 26.506141 50.921824 22.312938 49.146484 18.396484 C 48.258815 16.438257 47.52293 14.554479 46.955078 13.064453 C 46.671152 12.31944 46.430494 11.673245 46.228516 11.158203 C 46.026537 10.643162 45.896308 10.297 45.699219 9.96875 C 45.249888 9.2203944 44.792688 8.5811315 44.083984 8.1308594 C 43.37528 7.6805873 42.532414 7.4830636 41.408203 7.3671875 C 41.126792 7.338076 40.859532 7.3393914 40.607422 7.3652344 z M 41.230469 9.3613281 C 42.198196 9.4635158 42.697171 9.6185132 43.011719 9.8183594 C 43.330015 10.020587 43.584706 10.332402 43.984375 10.998047 C 43.999535 11.023297 44.172709 11.397737 44.365234 11.888672 C 44.557759 12.379607 44.799722 13.024372 45.085938 13.775391 C 45.658366 15.277427 46.408763 17.203133 47.324219 19.222656 C 49.155129 23.261702 51.580102 27.696547 54.878906 29.974609 C 60.933775 34.155934 68.766815 37.706548 71.144531 38.826172 C 73.291169 39.836092 73.382029 40.753142 73.423828 41.541016 C 73.453678 42.108625 73.113031 43.132084 71.001953 44.087891 C 67.460779 45.689967 59.081351 48.809409 54.347656 53.167969 C 51.903852 55.41788 49.700644 58.944647 47.841797 62.388672 C 45.98295 65.832697 44.491239 69.199564 43.650391 71.021484 C 43.617262 71.093267 43.580887 71.151402 43.546875 71.21875 C 42.807672 71.361959 41.577235 71.516422 40.958984 71.052734 C 39.850984 70.221734 39.701844 67.657328 38.464844 64.236328 C 37.226844 60.815328 35.364797 54.262875 31.591797 50.546875 C 26.604797 45.635875 15.347125 43.378125 13.578125 42.953125 C 12.192125 42.621125 11.916063 41.235297 12.914062 40.404297 C 15.425062 38.312297 24.196125 38.185875 31.078125 30.921875 C 35.436125 26.322875 37.921531 18.545141 39.019531 14.244141 C 39.507001 12.33458 40.655764 10.313194 41.230469 9.3613281 z M 75.751953 59.3125 C 75.553798 59.327102 75.352518 59.368181 75.152344 59.441406 C 74.351648 59.734305 73.699469 60.414121 73.103516 61.472656 C 72.894017 61.845142 72.727777 62.288656 72.474609 62.902344 C 72.221441 63.516031 71.911136 64.258029 71.548828 65.027344 C 70.824212 66.565973 69.85586 68.212433 68.857422 69.09375 C 66.564709 71.117518 64.946324 71.688689 62.162109 72.691406 C 60.566166 73.265598 59.542101 74.553415 59.419922 75.947266 C 59.297743 77.341117 60.204318 78.778693 61.791016 79.314453 C 62.684157 79.616045 64.318453 80.278703 65.892578 81.105469 C 67.466704 81.932235 68.994139 82.970799 69.658203 83.800781 C 71.220988 85.754032 72.005871 88.039142 72.617188 89.414062 C 73.019047 90.317893 73.793324 91.180047 74.935547 91.560547 C 76.077769 91.941047 77.59185 91.535777 78.621094 90.164062 C 80.488193 87.67423 81.504713 84.400526 83.023438 82.898438 C 85.006737 80.936071 88.326884 79.419042 89.777344 79.056641 C 91.134921 78.716565 92.076385 77.607179 92.167969 76.371094 C 92.259519 75.135449 91.48454 73.861382 90.095703 73.21875 L 90.09375 73.21875 C 88.193129 72.339832 84.501298 70.783496 82.636719 68.679688 C 80.727228 66.526021 78.929688 61.65625 78.929688 61.65625 A 1.0001 1.0001 0 0 0 78.880859 61.541016 C 78.880859 61.541016 78.399884 60.423041 77.318359 59.724609 C 77.047978 59.550002 76.705818 59.405847 76.332031 59.341797 C 76.145137 59.309772 75.950108 59.297898 75.751953 59.3125 z M 76.017578 61.292969 C 76.072272 61.305864 76.133678 61.342485 76.232422 61.40625 C 76.625335 61.659987 77.083076 62.421663 77.087891 62.429688 C 77.150921 62.615676 78.74965 67.309139 81.140625 70.005859 C 83.51576 72.684935 87.480411 74.212131 89.255859 75.033203 C 90.05109 75.400793 90.200995 75.857945 90.173828 76.224609 C 90.146658 76.591274 89.925438 76.95631 89.291016 77.115234 C 87.347475 77.600833 83.991888 79.126929 81.617188 81.476562 C 79.484339 83.58605 78.547842 86.926608 77.021484 88.962891 C 76.889918 89.138236 76.779752 89.252192 76.669922 89.361328 C 76.274464 89.271431 75.853516 89.156054 75.509766 88.984375 C 74.634766 88.547375 73.3055 83.563609 72.1875 81.474609 C 71.0705 79.384609 64.910109 77.823063 63.287109 77.164062 C 62.175109 76.712063 62.453422 75.802781 63.357422 75.425781 C 64.609422 74.903781 68.876219 73.690516 71.449219 70.978516 C 72.869859 69.481444 73.265214 66.710839 73.990234 64.429688 C 74.093986 64.183744 74.234183 63.879531 74.322266 63.666016 C 74.577535 63.047234 74.796201 62.541139 74.845703 62.453125 C 74.923765 62.314471 74.995675 62.213741 75.068359 62.105469 C 75.295629 61.794376 75.555667 61.528573 75.855469 61.316406 C 75.919965 61.294203 75.96768 61.281205 76.017578 61.292969 z"/></svg>